<svg width="57" height="80" viewBox="0 0 57 80" fill="none" xmlns="http://www.w3.org/2000/svg">
<path d="M0.6875 14.9688C0.6875 6.70313 7.39063 0 15.6563 0H41.3438C49.6094 0 56.3125 6.70313 56.3125 14.9688C56.3125 20.2031 53.625 24.8125 49.5469 27.4844C53.625 30.1562 56.3125 34.7656 56.3125 40C56.3125 48.2656 49.6094 54.9687 41.3438 54.9687H41.0156C37.1406 54.9687 33.6094 53.5 30.9531 51.0781V64.875C30.9531 73.25 24.0781 80 15.7344 80C7.48438 80 0.6875 73.3125 0.6875 65.0313C0.6875 59.7969 3.375 55.1875 7.4375 52.5156C3.375 49.8438 0.6875 45.2344 0.6875 40C0.6875 34.7656 3.375 30.1562 7.4375 27.4844C3.375 24.8125 0.6875 20.2031 0.6875 14.9688ZM26.0469 29.9375H15.6563C10.0938 29.9375 5.59375 34.4375 5.59375 40C5.59375 45.5313 10.0625 50.0312 15.5938 50.0625C15.6094 50.0625 15.6406 50.0625 15.6563 50.0625H26.0469V29.9375ZM30.9531 40C30.9531 45.5625 35.4531 50.0625 41.0156 50.0625H41.3438C46.8906 50.0625 51.4063 45.5625 51.4063 40C51.4063 34.4375 46.8906 29.9375 41.3438 29.9375H41.0156C35.4531 29.9375 30.9531 34.4375 30.9531 40ZM15.6563 54.9687C15.6406 54.9687 15.6094 54.9687 15.5938 54.9687C10.0625 55 5.59375 59.5 5.59375 65.0313C5.59375 70.5781 10.1563 75.0938 15.7344 75.0938C21.4063 75.0938 26.0469 70.5 26.0469 64.875V54.9687H15.6563ZM15.6563 4.90625C10.0938 4.90625 5.59375 9.40625 5.59375 14.9688C5.59375 20.5313 10.0938 25.0312 15.6563 25.0312H26.0469V4.90625H15.6563ZM30.9531 25.0312H41.3438C46.8906 25.0312 51.4063 20.5313 51.4063 14.9688C51.4063 9.40625 46.8906 4.90625 41.3438 4.90625H30.9531V25.0312Z" fill="white"/>
</svg>
