<svg width="78" height="76" viewBox="0 0 78 76" fill="none" xmlns="http://www.w3.org/2000/svg">
<path d="M25.9219 61.0937C25.9219 61.4062 25.5625 61.6562 25.1094 61.6562C24.5937 61.7031 24.2344 61.4531 24.2344 61.0937C24.2344 60.7812 24.5938 60.5312 25.0469 60.5312C25.5156 60.4844 25.9219 60.7344 25.9219 61.0937ZM21.0625 60.3906C20.9531 60.7031 21.2656 61.0625 21.7344 61.1562C22.1406 61.3125 22.6094 61.1562 22.7031 60.8437C22.7969 60.5312 22.5 60.1719 22.0312 60.0313C21.625 59.9219 21.1719 60.0781 21.0625 60.3906ZM27.9688 60.125C27.5156 60.2344 27.2031 60.5313 27.25 60.8906C27.2969 61.2031 27.7031 61.4063 28.1719 61.2969C28.625 61.1875 28.9375 60.8906 28.8906 60.5781C28.8437 60.2813 28.4219 60.0781 27.9688 60.125ZM38.25 0.25C16.5781 0.25 0 16.7031 0 38.375C0 55.7031 10.9063 70.5313 26.4844 75.75C28.4844 76.1094 29.1875 74.875 29.1875 73.8594C29.1875 72.8906 29.1406 67.5469 29.1406 64.2656C29.1406 64.2656 18.2031 66.6094 15.9063 59.6094C15.9063 59.6094 14.125 55.0625 11.5625 53.8906C11.5625 53.8906 7.98437 51.4375 11.8125 51.4844C11.8125 51.4844 15.7031 51.7969 17.8437 55.5156C21.2656 61.5469 27 59.8125 29.2344 58.7813C29.5938 56.2813 30.6094 54.5469 31.7344 53.5156C23 52.5469 14.1875 51.2812 14.1875 36.25C14.1875 31.9531 15.375 29.7969 17.875 27.0469C17.4688 26.0312 16.1406 21.8437 18.2812 16.4375C21.5469 15.4219 29.0625 20.6563 29.0625 20.6563C32.1875 19.7813 35.5469 19.3281 38.875 19.3281C42.2031 19.3281 45.5625 19.7813 48.6875 20.6563C48.6875 20.6563 56.2031 15.4062 59.4688 16.4375C61.6094 21.8594 60.2813 26.0312 59.875 27.0469C62.375 29.8125 63.9062 31.9687 63.9062 36.25C63.9062 51.3281 54.7031 52.5312 45.9688 53.5156C47.4063 54.75 48.625 57.0937 48.625 60.7656C48.625 66.0312 48.5781 72.5469 48.5781 73.8281C48.5781 74.8437 49.2969 76.0781 51.2813 75.7188C66.9063 70.5312 77.5 55.7031 77.5 38.375C77.5 16.7031 59.9219 0.25 38.25 0.25ZM15.1875 54.1406C14.9844 54.2969 15.0313 54.6563 15.2969 54.9531C15.5469 55.2031 15.9062 55.3125 16.1094 55.1094C16.3125 54.9531 16.2656 54.5937 16 54.2969C15.75 54.0469 15.3906 53.9375 15.1875 54.1406ZM13.5 52.875C13.3906 53.0781 13.5469 53.3281 13.8594 53.4844C14.1094 53.6406 14.4219 53.5937 14.5312 53.375C14.6406 53.1719 14.4844 52.9219 14.1719 52.7656C13.8594 52.6719 13.6094 52.7187 13.5 52.875ZM18.5625 58.4375C18.3125 58.6406 18.4062 59.1094 18.7656 59.4063C19.125 59.7656 19.5781 59.8125 19.7812 59.5625C19.9844 59.3594 19.8906 58.8906 19.5781 58.5937C19.2344 58.2344 18.7656 58.1875 18.5625 58.4375ZM16.7813 56.1406C16.5313 56.2969 16.5313 56.7031 16.7813 57.0625C17.0313 57.4219 17.4531 57.5781 17.6562 57.4219C17.9063 57.2187 17.9063 56.8125 17.6562 56.4531C17.4375 56.0938 17.0313 55.9375 16.7813 56.1406Z" fill="white"/>
</svg>
