<svg width="81" height="70" viewBox="0 0 81 70" fill="none" xmlns="http://www.w3.org/2000/svg">
<path d="M65.8438 22.6875C65 22.4062 64.1563 22.1406 63.3125 21.8906C63.4531 21.3125 63.5781 20.7344 63.7031 20.1562C65.625 10.8437 64.3594 3.35937 60.0937 0.890624C55.9844 -1.46875 49.2812 0.984374 42.5 6.89062C41.8281 7.46875 41.1719 8.07812 40.5469 8.6875C40.125 8.28125 39.6875 7.875 39.25 7.48437C32.1406 1.17187 25.0156 -1.48438 20.75 0.999999C16.6563 3.375 15.4375 10.4219 17.1562 19.2344C17.3281 20.1094 17.5156 20.9687 17.7344 21.8437C16.7344 22.125 15.75 22.4375 14.8281 22.7656C6.48437 25.6562 0.5 30.2187 0.5 34.9375C0.5 39.8125 6.875 44.7031 15.5469 47.6719C16.25 47.9062 16.9531 48.1406 17.6719 48.3437C17.4375 49.2812 17.2344 50.2031 17.0469 51.1562C15.4063 59.8281 16.6875 66.7031 20.7813 69.0625C25 71.5 32.0937 69 39 62.9531C39.5469 62.4687 40.0937 61.9688 40.6406 61.4375C41.3281 62.1094 42.0469 62.75 42.7656 63.375C49.4531 69.125 56.0625 71.4531 60.1406 69.0938C64.3594 66.6562 65.7344 59.2656 63.9531 50.2656C63.8125 49.5781 63.6563 48.875 63.4844 48.1562C63.9844 48.0156 64.4688 47.8594 64.9531 47.7031C73.9688 44.7187 80.5 39.8906 80.5 34.9375C80.5 30.2031 74.3438 25.6094 65.8438 22.6875ZM44.7031 9.42187C50.5156 4.35937 55.9375 2.375 58.4063 3.79687C61.0469 5.3125 62.0625 11.4375 60.4062 19.4844C60.2969 20.0156 60.1875 20.5312 60.0469 21.0469C56.5781 20.2656 53.0625 19.7031 49.5312 19.3906C47.5 16.4844 45.2813 13.7031 42.875 11.0937C43.4844 10.5156 44.0781 9.96875 44.7031 9.42187ZM26.625 43.0469C27.4219 44.4062 28.2344 45.7656 29.0938 47.0937C26.6562 46.8281 24.2344 46.4375 21.8438 45.9219C22.5313 43.6719 23.3906 41.3437 24.3906 38.9687C25.1094 40.3437 25.8437 41.7031 26.625 43.0469ZM21.8906 24.25C24.1406 23.75 26.5313 23.3437 29.0156 23.0312C28.1875 24.3281 27.375 25.6562 26.6094 27C25.8438 28.3281 25.0937 29.6875 24.3906 31.0625C23.4062 28.7344 22.5781 26.4531 21.8906 24.25ZM26.1719 35.0156C27.2031 32.8594 28.3281 30.75 29.5156 28.6719C30.7031 26.5937 31.9844 24.5781 33.3281 22.5937C35.6719 22.4219 38.0625 22.3281 40.5 22.3281C42.9375 22.3281 45.3437 22.4219 47.6719 22.5937C49 24.5625 50.2656 26.5781 51.4688 28.6406C52.6719 30.7031 53.7969 32.8125 54.8594 34.9531C53.8125 37.1094 52.6875 39.2344 51.4844 41.3281C50.2969 43.4062 49.0313 45.4219 47.7031 47.4219C45.375 47.5937 42.9531 47.6719 40.5 47.6719C38.0469 47.6719 35.6719 47.5937 33.375 47.4531C32.0156 45.4688 30.7344 43.4375 29.5313 41.3594C28.3281 39.2812 27.2188 37.1719 26.1719 35.0156ZM54.3906 43.0156C55.1875 41.6406 55.9375 40.25 56.6719 38.8437C57.6719 41.1094 58.5469 43.4062 59.3125 45.7656C56.8906 46.3125 54.4375 46.7344 51.9687 47.0156C52.8125 45.7031 53.6094 44.3594 54.3906 43.0156ZM56.6406 31.0625C55.9062 29.6875 55.1562 28.3125 54.375 26.9687C53.6094 25.6406 52.8125 24.3281 51.9844 23.0312C54.5 23.3437 56.9062 23.7656 59.1562 24.2812C58.4375 26.5937 57.5937 28.8437 56.6406 31.0625ZM40.5313 13.4844C42.1719 15.2656 43.7187 17.1406 45.1562 19.0781C42.0625 18.9375 38.9531 18.9375 35.8594 19.0781C37.3906 17.0625 38.9688 15.1875 40.5313 13.4844ZM22.4062 3.90625C25.0312 2.375 30.8594 4.5625 37 10C37.3906 10.3437 37.7812 10.7187 38.1875 11.0937C35.7656 13.7031 33.5313 16.4844 31.4844 19.3906C27.9531 19.7031 24.4531 20.25 20.9844 21.0156C20.7813 20.2187 20.6094 19.4062 20.4375 18.5937C18.9687 11.0312 19.9375 5.32812 22.4062 3.90625ZM18.5781 45.0937C17.9219 44.9062 17.2813 44.7031 16.6406 44.4844C13.3125 43.4375 9.53125 41.7812 6.79687 39.6094C5.21875 38.5156 4.15625 36.8281 3.85938 34.9375C3.85938 32.0781 8.79687 28.4219 15.9219 25.9375C16.8125 25.625 17.7187 25.3437 18.625 25.0781C19.6875 28.4687 20.9688 31.7969 22.4531 35.0156C20.9531 38.2812 19.6562 41.6562 18.5781 45.0937ZM36.7969 60.4062C34.2188 62.7656 31.2344 64.6406 27.9844 65.9219C26.25 66.75 24.25 66.8281 22.4688 66.125C19.9844 64.6875 18.9531 59.1719 20.3594 51.75C20.5312 50.875 20.7188 50 20.9375 49.1406C24.4375 49.8906 27.9687 50.4062 31.5469 50.6719C33.6094 53.5937 35.875 56.3906 38.2969 59.0156C37.7969 59.5 37.2969 59.9687 36.7969 60.4062ZM40.625 56.6094C39.0312 54.8906 37.4375 52.9844 35.8906 50.9375C37.3906 51 38.9375 51.0312 40.5 51.0312C42.1094 51.0312 43.6875 51 45.25 50.9219C43.8125 52.9062 42.2656 54.7969 40.625 56.6094ZM61.0469 61.2969C60.9063 63.2031 59.9688 64.9844 58.4688 66.1875C55.9844 67.625 50.6875 65.75 44.9688 60.8437C44.3125 60.2812 43.6562 59.6719 42.9844 59.0469C45.375 56.4062 47.5781 53.6094 49.5781 50.6719C53.1563 50.375 56.7187 49.8281 60.2344 49.0312C60.3906 49.6719 60.5312 50.3125 60.6562 50.9375C61.4219 54.3125 61.5469 57.8281 61.0469 61.2969ZM63.8906 44.5C63.4531 44.6406 63.0156 44.7812 62.5625 44.9062C61.4688 41.5 60.125 38.1719 58.5781 34.9375C60.0781 31.75 61.3438 28.4687 62.4063 25.1094C63.2188 25.3437 64 25.5937 64.75 25.8437C72.0313 28.3437 77.1406 32.0625 77.1406 34.9062C77.1406 37.9687 71.6875 41.9219 63.8906 44.5ZM40.5 42.1562C44.4531 42.1562 47.6562 38.9531 47.6562 35C47.6562 31.0469 44.4531 27.8437 40.5 27.8437C36.5469 27.8437 33.3437 31.0469 33.3437 35C33.3437 38.9531 36.5469 42.1562 40.5 42.1562Z" fill="white"/>
</svg>
