<svg width="61" height="74" viewBox="0 0 61 74" fill="none" xmlns="http://www.w3.org/2000/svg">
<path d="M38.7154 0.752329C34.5226 0.637489 30.3041 1.6937 26.6134 4.03602L26.6085 4.03846L10.3097 14.4706C10.3072 14.4722 10.3048 14.474 10.3023 14.4755L10.2999 14.4779C5.55791 17.4541 2.26965 22.3212 1.3204 27.8324C0.54874 32.1734 1.2343 36.6052 3.16855 40.5521C1.84493 42.6846 0.900319 45.0064 0.490324 47.4613C0.489898 47.4638 0.488307 47.466 0.487882 47.4686C-0.515404 53.0737 0.80528 58.8571 4.07675 63.455C4.0785 63.4573 4.07988 63.4598 4.08163 63.4623L4.08407 63.4647C10.9855 73.3037 24.5209 76.2054 34.3575 69.9613L50.6612 59.5878C55.4102 56.6122 58.7006 51.741 59.6505 46.226C60.4221 41.8851 59.7365 37.4531 57.8023 33.5062C59.125 31.3753 60.0677 29.0525 60.4781 26.5995C61.5454 20.932 60.2201 15.1324 56.8819 10.5302C52.604 4.38218 45.6963 0.943534 38.7154 0.752329ZM17.6827 0.786509C17.5213 0.81565 17.3605 0.877056 17.214 0.972056C16.6265 1.35206 16.4557 2.13034 16.8307 2.71034L18.1905 4.8075C18.5655 5.3875 19.345 5.55127 19.9312 5.17127C20.5187 4.79127 20.6895 4.01299 20.3145 3.43299L18.9571 1.33583C18.6759 0.900825 18.167 0.699087 17.6827 0.786509ZM38.6617 3.26209C44.8684 3.43949 51.0365 6.49375 54.8409 11.973C54.8465 11.9804 54.8522 11.9877 54.858 11.995C57.7996 16.0482 58.9646 21.1515 58.0196 26.1503C58.0179 26.1592 58.0163 26.1682 58.0147 26.1771C57.6293 28.4907 56.7508 30.6957 55.422 32.6884C55.296 32.8771 55.2237 33.0965 55.213 33.3232C55.2022 33.5499 55.2534 33.7752 55.3609 33.975C57.2987 37.5729 57.9111 41.7291 57.1871 45.7938V45.8012C56.3595 50.6061 53.4816 54.8693 49.3331 57.4686C49.3307 57.4703 49.3282 57.4719 49.3258 57.4735L33.0172 67.8519C24.3547 73.3507 12.2734 70.7973 6.12509 62.0219C6.12347 62.0194 6.12184 62.017 6.12021 62.0145C3.23221 57.9606 2.06272 52.8396 2.95126 47.8959C2.9521 47.891 2.95292 47.8861 2.9537 47.8812C3.3391 45.5677 4.22011 43.3626 5.54892 41.37C5.6749 41.1813 5.74714 40.9618 5.7579 40.7352C5.76865 40.5085 5.71751 40.2832 5.60995 40.0834C3.67218 36.4855 3.05735 32.3268 3.78134 28.2621C3.78216 28.2597 3.78297 28.2572 3.78378 28.2548C4.61134 23.45 7.48794 19.1891 11.6353 16.5897C11.6394 16.5873 11.6435 16.5849 11.6476 16.5824L27.9513 6.1454L27.9561 6.14295C31.2027 4.08391 34.9395 3.15571 38.6617 3.26209ZM12.3702 4.22401C12.2088 4.25315 12.048 4.31456 11.9015 4.40956C11.314 4.78956 11.1432 5.56784 11.5182 6.14784L12.878 8.245C13.253 8.825 14.0325 8.98877 14.6187 8.60877C15.2062 8.22877 15.377 7.45049 15.002 6.87049L13.6446 4.77333C13.3634 4.33833 12.8545 4.13659 12.3702 4.22401ZM7.05771 7.66151C6.89628 7.69065 6.73552 7.75206 6.58896 7.84706C6.00146 8.22706 5.83066 9.00534 6.20566 9.58534L7.56552 11.6825C7.94052 12.2625 8.71999 12.4263 9.30624 12.0463C9.89374 11.6663 10.0645 10.888 9.68954 10.308L8.33212 8.21082C8.05087 7.77582 7.54198 7.57409 7.05771 7.66151ZM38.5518 8.18153C37.4595 8.2049 36.358 8.35571 35.2657 8.63807C35.2502 8.64184 35.2347 8.64591 35.2193 8.65028C33.9423 9.03325 32.6958 9.55338 31.5572 10.2885L31.5548 10.2909C31.5527 10.2923 31.5497 10.2919 31.5475 10.2933L15.1192 20.7474C12.1232 22.6121 10.0102 25.7124 9.40634 29.1849C8.74756 32.7502 9.60635 36.376 11.6427 39.2704L11.6451 39.2728L11.6476 39.2777C15.0514 44.1815 21.1511 46.4738 26.9723 44.9711H26.9771C28.292 44.6417 29.551 44.1142 30.6881 43.3793L36.9405 39.39C37.058 39.3192 37.3251 39.2178 37.6436 39.1093C38.7676 38.826 39.8688 39.2194 40.5294 40.1664C40.8758 40.6663 41.0397 41.3743 40.9273 41.9755C40.8095 42.6061 40.5064 43.0534 39.9239 43.4281L23.5665 53.8749C23.449 53.9457 23.1819 54.0471 22.8634 54.1556C21.7709 54.4302 20.6582 53.9979 19.9874 53.0448C19.674 52.5683 19.5006 51.9223 19.5382 51.3895V51.3871L19.5943 50.8231C19.623 50.5346 19.5505 50.2452 19.3893 50.0042C19.2281 49.7633 18.9882 49.5859 18.7105 49.5023L18.1124 49.3217C15.9122 48.644 13.891 47.6314 12.0284 46.2772C12.0252 46.2756 12.0219 46.274 12.0186 46.2723L11.1812 45.6742C11.0204 45.5595 10.8348 45.4846 10.6394 45.4555C10.444 45.4264 10.2446 45.4441 10.0574 45.507C9.87012 45.5698 9.70046 45.6762 9.56227 45.8173C9.42407 45.9584 9.32127 46.1302 9.2623 46.3187L8.962 47.2758C8.95167 47.3087 8.94271 47.3421 8.93515 47.3759C8.81912 47.8968 8.70267 48.3745 8.5787 48.931C8.57323 48.9529 8.56834 48.9749 8.56405 48.997C7.97369 52.5364 8.76429 56.1677 10.8761 59.0775C14.2819 63.9777 20.3811 66.2729 26.2008 64.7684C26.2163 64.7639 26.2318 64.759 26.2472 64.7538C27.5277 64.3698 28.7755 63.849 29.9166 63.1107L29.9093 63.118L46.3473 52.6542C49.3455 50.7881 51.4605 47.6851 52.0626 44.2094C52.0634 44.2069 52.0642 44.2045 52.065 44.202C52.6539 40.6632 51.8649 37.0315 49.753 34.1215C46.3472 29.2213 40.248 26.9261 34.4283 28.4305C34.4128 28.4343 34.3973 28.4384 34.3819 28.4428C33.1039 28.826 31.8591 29.3474 30.7198 30.0834L24.4601 34.0751C24.3412 34.1456 24.0772 34.2459 23.7618 34.3534C22.6379 34.6367 21.5364 34.2429 20.8761 33.2963C20.5296 32.7963 20.3657 32.086 20.4781 31.4847C20.596 30.8541 20.8967 30.4092 21.4791 30.0346L37.8365 19.5878L37.8438 19.5853C37.9627 19.5148 38.2267 19.4145 38.5421 19.307C39.6617 19.0248 40.7569 19.418 41.4181 20.3568C41.7314 20.8333 41.9049 21.4793 41.8673 22.0121V22.0145L41.8111 22.5785C41.7818 22.8674 41.854 23.1574 42.0153 23.3989C42.1766 23.6403 42.4169 23.8181 42.6949 23.9017L43.2857 24.0775H43.2882L43.2931 24.08C45.4932 24.7576 47.5145 25.7702 49.377 27.1244C49.3803 27.126 49.3835 27.1277 49.3868 27.1293L50.2242 27.7299C50.385 27.8445 50.5707 27.9195 50.7661 27.9486C50.9614 27.9776 51.1609 27.96 51.3481 27.8971C51.5353 27.8342 51.705 27.7279 51.8432 27.5868C51.9814 27.4457 52.0842 27.2738 52.1432 27.0853L52.4337 26.1503L52.441 26.1283C52.6346 25.5452 52.7655 25.0198 52.8878 24.4706C52.8924 24.4487 52.8965 24.4267 52.9 24.4047C53.4903 20.8656 52.7018 17.2346 50.588 14.3265C48.0343 10.6526 43.9698 8.44179 39.6407 8.20106C39.2795 8.18097 38.916 8.17374 38.5518 8.18153ZM38.6129 10.6815C38.9115 10.6749 39.2103 10.6799 39.5064 10.6962C43.084 10.8922 46.4349 12.7153 48.547 15.7621C48.5526 15.7703 48.5583 15.7784 48.5641 15.7865C50.2704 18.1289 50.9144 21.065 50.4342 23.975C50.3733 24.2465 50.2978 24.4856 50.2315 24.7294C48.4227 23.4973 46.4807 22.522 44.3966 21.8412L44.36 22.1952C44.3703 22.0501 44.2523 21.9274 44.2501 21.7826C44.1709 21.7573 44.1002 21.7143 44.0206 21.6898L44.2428 21.7557C44.2227 20.775 44.0485 19.7873 43.4981 18.9603C43.4933 18.953 43.4884 18.9456 43.4835 18.9384C42.2325 17.1403 39.993 16.3436 37.8951 16.8876C37.8672 16.8948 37.8395 16.9029 37.8121 16.912C37.4558 17.0312 37.0169 17.1638 36.5475 17.4467C36.5384 17.4522 36.5295 17.4579 36.5206 17.4638L20.1314 27.9301L20.1266 27.9325C19.034 28.6353 18.2592 29.7439 18.0196 31.0258C17.7745 32.3371 18.0893 33.6646 18.8204 34.7196V34.7221C20.0713 36.5201 22.3109 37.3168 24.4088 36.7728C24.4367 36.7657 24.4644 36.7575 24.4918 36.7484C24.8481 36.6292 25.287 36.4966 25.7564 36.2138C25.7655 36.2082 25.7744 36.2025 25.7833 36.1967L32.0626 32.1903C32.065 32.1887 32.0675 32.1871 32.0699 32.1854C32.9528 31.6142 33.9707 31.1822 35.0704 30.85C39.8872 29.6123 44.8968 31.4995 47.7096 35.557C47.7152 35.5644 47.7209 35.5717 47.7267 35.579C49.4344 37.9269 50.0815 40.8686 49.5992 43.7821C49.1238 46.5264 47.4107 49.0462 45.0265 50.5302C45.0232 50.5326 45.0199 50.535 45.0167 50.5375L28.5665 61.0087C28.564 61.0103 28.5616 61.0119 28.5592 61.0136C27.6763 61.5848 26.6584 62.0167 25.5587 62.349C20.7419 63.5866 15.7323 61.6995 12.9195 57.642C12.9139 57.6338 12.9082 57.6256 12.9024 57.6176C11.1951 55.2701 10.5474 52.3314 11.0299 49.4193C11.0845 49.1758 11.1422 48.9283 11.1983 48.6893C13.0002 49.9134 14.9342 50.8852 17.0089 51.5629L17.0455 51.2089C17.0351 51.3541 17.1532 51.4766 17.1554 51.6215C17.2346 51.6468 17.3053 51.6898 17.3849 51.7142L17.1627 51.6483C17.1829 52.629 17.3571 53.6145 17.9073 54.4413C17.9121 54.4487 17.917 54.456 17.922 54.4633C19.1632 56.2473 21.3844 57.1263 23.5103 56.5751C23.5383 56.5679 23.566 56.5598 23.5934 56.5507C23.9496 56.4315 24.3885 56.2989 24.858 56.016C24.867 56.0104 24.876 56.0047 24.8849 55.9989L41.274 45.5326L41.2765 45.5302C42.369 44.8273 43.1462 43.7188 43.3858 42.4369C43.6309 41.1256 43.3161 39.7981 42.5851 38.743L42.5826 38.7406C41.332 36.943 39.0944 36.1459 36.9967 36.6898C36.9687 36.697 36.941 36.7051 36.9137 36.7142C36.5574 36.8334 36.1185 36.966 35.649 37.2489C35.64 37.2545 35.631 37.2602 35.6222 37.266L29.3429 41.2723C29.3404 41.274 29.338 41.2756 29.3355 41.2772C28.4441 41.854 27.4343 42.2814 26.3619 42.5492C26.3586 42.55 26.3554 42.5508 26.3521 42.5516C21.5301 43.7982 16.512 41.907 13.6959 37.8446C13.6943 37.8422 13.6926 37.8397 13.691 37.8373C12.0249 35.4723 11.3292 32.5236 11.8648 29.6342C11.8657 29.6293 11.8665 29.6244 11.8673 29.6195C12.3427 26.8752 14.0558 24.3554 16.44 22.8715C16.4433 22.869 16.4466 22.8666 16.4498 22.8641L32.8976 12.3978C32.9008 12.3962 32.9041 12.3946 32.9073 12.393C33.7923 11.8204 34.8124 11.3876 35.9151 11.0551C36.8133 10.8249 37.7169 10.7014 38.6129 10.6815ZM1.74521 11.099C1.58378 11.1281 1.42302 11.1896 1.27646 11.2846C0.688956 11.6646 0.518156 12.4428 0.893156 13.0228L2.25302 15.12C2.62802 15.7 3.40749 15.8638 3.99374 15.4838C4.58124 15.1038 4.75204 14.3255 4.37704 13.7455L3.01962 11.6483C2.73837 11.2133 2.22948 11.0116 1.74521 11.099ZM57.4874 58.3475C57.326 58.3767 57.1676 58.4381 57.0211 58.5331C56.4336 58.9131 56.2603 59.6914 56.6353 60.2714L57.9952 62.371C58.3702 62.951 59.1497 63.1123 59.7359 62.7323C60.3222 62.3523 60.493 61.574 60.1192 60.994L58.7618 58.8969C58.4806 58.4619 57.9717 58.2601 57.4874 58.3475ZM52.1749 61.785C52.0135 61.8142 51.8551 61.8756 51.7086 61.9706C51.1211 62.3506 50.9478 63.1289 51.3228 63.7089L52.6827 65.8085C53.0577 66.3885 53.8372 66.5498 54.4234 66.1698C55.0097 65.7898 55.1805 65.0115 54.8067 64.4315L53.4493 62.3344C53.1681 61.8994 52.6592 61.6976 52.1749 61.785ZM46.8624 65.2225C46.701 65.2517 46.5426 65.3131 46.3961 65.4081C45.8086 65.7881 45.6353 66.5664 46.0103 67.1464L47.3702 69.246C47.7452 69.826 48.5247 69.9873 49.1109 69.6073C49.6972 69.2273 49.868 68.449 49.4942 67.869L48.1368 65.7719C47.8556 65.3369 47.3467 65.1351 46.8624 65.2225ZM41.5499 68.66C41.3885 68.6892 41.2301 68.7506 41.0836 68.8456C40.4961 69.2256 40.3228 70.0039 40.6978 70.5839L42.0577 72.6835C42.4327 73.2635 43.2122 73.4248 43.7984 73.0448C44.3847 72.6648 44.5555 71.8865 44.1817 71.3065L42.8243 69.2094C42.5431 68.7744 42.0342 68.5726 41.5499 68.66Z" fill="white"/>
</svg>
