<svg width="81" height="80" viewBox="0 0 81 80" fill="none" xmlns="http://www.w3.org/2000/svg">
<path d="M75.2089 15.3649L42.3544 74.1142C41.6759 75.3269 39.9334 75.3342 39.2446 74.1272L5.73889 15.3704C4.98889 14.0549 6.11339 12.4617 7.60389 12.7279L40.4939 18.6069C40.7037 18.6444 40.9185 18.6441 41.1281 18.6059L73.3301 12.7364C74.8156 12.4657 75.9459 14.0469 75.2089 15.3649Z" fill="white"/>
<path d="M56.161 5.01726L31.8477 9.78126C31.6534 9.81928 31.4773 9.92081 31.347 10.0699C31.2167 10.219 31.1396 10.4071 31.128 10.6048L29.6325 35.8643C29.5975 36.4593 30.1437 36.921 30.7242 36.787L37.4935 35.225C38.127 35.0788 38.6992 35.6368 38.569 36.2735L36.558 46.1218C36.4225 46.7843 37.0447 47.3513 37.692 47.1548L41.873 45.8843C42.5212 45.6875 43.144 46.256 43.007 46.9193L39.811 62.3885C39.611 63.356 40.898 63.8835 41.4347 63.054L41.7932 62.5L61.605 22.962C61.9367 22.3 61.365 21.5453 60.6375 21.6855L53.67 23.0303C53.015 23.1565 52.458 22.5468 52.6427 21.906L57.1905 6.14101C57.3755 5.49901 56.8165 4.88876 56.161 5.01726Z" fill="#5F5F5F"/>
</svg>
